<svg width="147" height="35" viewBox="0 0 147 35" fill="none" xmlns="http://www.w3.org/2000/svg">
<path d="M52.0508 23.7021C52.0508 25.1846 51.7842 26.3008 51.251 27.0508C50.7178 27.8008 49.9443 28.1758 48.9307 28.1758C47.9229 28.1758 47.167 27.7422 46.6631 26.875L46.584 28H45.1689V14.5H46.7158V19.5361C47.2256 18.7217 47.958 18.3145 48.9131 18.3145C49.9561 18.3145 50.7383 18.6836 51.2598 19.4219C51.7812 20.1602 52.0449 21.2734 52.0508 22.7617V23.7021ZM50.5039 22.8145C50.5039 21.6895 50.3457 20.8896 50.0293 20.415C49.7188 19.9346 49.2119 19.6943 48.5088 19.6943C47.7061 19.6943 47.1084 20.1279 46.7158 20.9951V25.5215C47.1025 26.377 47.7061 26.8047 48.5264 26.8047C49.2295 26.8047 49.7334 26.5586 50.0381 26.0664C50.3428 25.5742 50.498 24.8096 50.5039 23.7725V22.8145ZM58.9326 28C58.8389 27.7949 58.7715 27.4492 58.7305 26.9629C58.1797 27.7715 57.4766 28.1758 56.6211 28.1758C55.7598 28.1758 55.0859 27.9355 54.5996 27.4551C54.1191 26.9688 53.8789 26.2861 53.8789 25.4072C53.8789 24.4404 54.207 23.6729 54.8633 23.1045C55.5195 22.5361 56.4189 22.2461 57.5615 22.2344H58.7041V21.2236C58.7041 20.6553 58.5781 20.251 58.3262 20.0107C58.0742 19.7705 57.6904 19.6504 57.1748 19.6504C56.7061 19.6504 56.3252 19.791 56.0322 20.0723C55.7393 20.3477 55.5928 20.6992 55.5928 21.127H54.0371C54.0371 20.6406 54.1807 20.1777 54.4678 19.7383C54.7549 19.293 55.1416 18.9443 55.6279 18.6924C56.1143 18.4404 56.6562 18.3145 57.2539 18.3145C58.2266 18.3145 58.9648 18.5576 59.4688 19.0439C59.9785 19.5244 60.2393 20.2275 60.251 21.1533V25.9521C60.2568 26.6846 60.3564 27.3203 60.5498 27.8594V28H58.9326ZM56.8584 26.7607C57.2393 26.7607 57.6025 26.6553 57.9482 26.4443C58.2939 26.2334 58.5459 25.9697 58.7041 25.6533V23.3857H57.8252C57.0869 23.3975 56.5039 23.5645 56.0762 23.8867C55.6484 24.2031 55.4346 24.6484 55.4346 25.2227C55.4346 25.7617 55.543 26.1543 55.7598 26.4004C55.9766 26.6406 56.3428 26.7607 56.8584 26.7607ZM65.9727 26.8486C66.4883 26.8486 66.9014 26.6904 67.2119 26.374C67.5225 26.0518 67.6924 25.5947 67.7217 25.0029H69.1895C69.1543 25.917 68.8291 26.6758 68.2139 27.2793C67.6045 27.877 66.8574 28.1758 65.9727 28.1758C64.7949 28.1758 63.8955 27.8066 63.2744 27.0684C62.6592 26.3242 62.3516 25.2197 62.3516 23.7549V22.709C62.3516 21.2734 62.6592 20.1836 63.2744 19.4395C63.8896 18.6895 64.7861 18.3145 65.9639 18.3145C66.9365 18.3145 67.707 18.6221 68.2754 19.2373C68.8496 19.8525 69.1543 20.6934 69.1895 21.7598H67.7217C67.6865 21.0566 67.5166 20.5293 67.2119 20.1777C66.9131 19.8262 66.4971 19.6504 65.9639 19.6504C65.2725 19.6504 64.7598 19.8789 64.4258 20.3359C64.0918 20.7871 63.9189 21.5312 63.9072 22.5684V23.7812C63.9072 24.9004 64.0713 25.6914 64.3994 26.1543C64.7334 26.6172 65.2578 26.8486 65.9727 26.8486ZM73.373 23.6494L72.5469 24.5986V28H70.9912V14.5H72.5469V22.5771L75.5088 18.4902H77.3721L74.3486 22.4629L77.7676 28H75.957L73.373 23.6494ZM91.3262 21.0039C91.3262 23.293 90.7832 25.0703 89.6973 26.3359C88.6191 27.6016 87.1191 28.2344 85.1973 28.2344C83.2832 28.2344 81.7793 27.6094 80.6855 26.3594C79.5918 25.1016 79.0371 23.3438 79.0215 21.0859V18.168C79.0215 15.8242 79.5645 13.9961 80.6504 12.6836C81.7363 11.3633 83.2441 10.7031 85.1738 10.7031C87.0723 10.7031 88.5684 11.3516 89.6621 12.6484C90.7559 13.9375 91.3105 15.75 91.3262 18.0859V21.0039ZM87.8691 18.1445C87.8691 16.6055 87.6504 15.4609 87.2129 14.7109C86.7754 13.9609 86.0957 13.5859 85.1738 13.5859C84.2598 13.5859 83.584 13.9492 83.1465 14.6758C82.709 15.3945 82.4824 16.4922 82.4668 17.9688V21.0039C82.4668 22.4961 82.6895 23.5977 83.1348 24.3086C83.5801 25.0117 84.2676 25.3633 85.1973 25.3633C86.0957 25.3633 86.7637 25.0195 87.2012 24.332C87.6387 23.6367 87.8613 22.5625 87.8691 21.1094V18.1445ZM102.6 21.0391H97.2441V28H93.7988V10.9375H103.244V13.8086H97.2441V18.1797H102.6V21.0391ZM114.014 21.0391H108.658V28H105.213V10.9375H114.658V13.8086H108.658V18.1797H114.014V21.0391ZM120.225 28H116.779V10.9375H120.225V28ZM134.686 22.3164C134.6 24.2617 134.053 25.7344 133.045 26.7344C132.037 27.7344 130.615 28.2344 128.779 28.2344C126.85 28.2344 125.369 27.6016 124.338 26.3359C123.314 25.0625 122.803 23.25 122.803 20.8984V18.0273C122.803 15.6836 123.334 13.8789 124.396 12.6133C125.459 11.3398 126.936 10.7031 128.826 10.7031C130.686 10.7031 132.096 11.2227 133.057 12.2617C134.025 13.3008 134.576 14.793 134.709 16.7383H131.252C131.221 15.5352 131.033 14.707 130.689 14.2539C130.354 13.793 129.732 13.5625 128.826 13.5625C127.904 13.5625 127.252 13.8867 126.869 14.5352C126.486 15.1758 126.283 16.2344 126.26 17.7109V20.9336C126.26 22.6289 126.447 23.793 126.822 24.4258C127.205 25.0586 127.857 25.375 128.779 25.375C129.686 25.375 130.311 25.1562 130.654 24.7188C130.998 24.2734 131.193 23.4727 131.24 22.3164H134.686ZM145.619 20.6172H140.252V25.1406H146.604V28H136.807V10.9375H146.58V13.8086H140.252V17.8398H145.619V20.6172Z" fill="white"/>
<path d="M0 13.8286L7.88572 27.7715H17.9429L10.0572 13.8286H0Z" fill="white"/>
<path d="M25.8285 13.8286L17.9429 27.7715H28.1142L36 13.8286H25.8285Z" fill="white"/>
<path d="M17.9429 0L10.0571 13.8286H25.8285L17.9429 0Z" fill="white"/>
</svg>
